<?xml version="1.0" encoding="UTF-8" standalone="no"?>
<svg
   version="1.0"
   width="1720.462867pt"
   height="770.936697pt"
   viewBox="0 0 1720.462867 770.936697"
   preserveAspectRatio="xMidYMid meet"
   id="svg22"
   sodipodi:docname="LOGO NOTARÍA FUTRONO.svg"
   inkscape:version="1.4 (86a8ad7, 2024-10-11)"
   xmlns:inkscape="http://www.inkscape.org/namespaces/inkscape"
   xmlns:sodipodi="http://sodipodi.sourceforge.net/DTD/sodipodi-0.dtd"
   xmlns="http://www.w3.org/2000/svg"
   xmlns:svg="http://www.w3.org/2000/svg">
  <defs
     id="defs22" />
  <sodipodi:namedview
     id="namedview22"
     pagecolor="#ffffff"
     bordercolor="#000000"
     borderopacity="0.25"
     inkscape:showpageshadow="2"
     inkscape:pageopacity="0.0"
     inkscape:pagecheckerboard="0"
     inkscape:deskcolor="#d1d1d1"
     inkscape:document-units="pt"
     inkscape:zoom="0.38710512"
     inkscape:cx="875.73112"
     inkscape:cy="417.19934"
     inkscape:window-width="1920"
     inkscape:window-height="1057"
     inkscape:window-x="-8"
     inkscape:window-y="-8"
     inkscape:window-maximized="1"
     inkscape:current-layer="g22" />
  <metadata
     id="metadata1">
Created by potrace 1.12, written by Peter Selinger 2001-2015
</metadata>
  <g
     transform="translate(-95.000000,932.000000) scale(0.100000,-0.100000)"
     fill="#000000"
     stroke="none"
     id="g22">
    <path
       d="M2727 9313 c-4 -3 -7 -29 -7 -58 l0 -51 248 -245 c292 -288 325 -332 476 -639 l101 -205 3 -1202 2 -1203 140 0 140 0 2 996 3 996 725 -996 725 -996 1068 0 c886 0 1067 2 1060 13 -4 8 -599 820 -1322 1805 l-1313 1792 -1022 0 c-563 0 -1026 -3 -1029 -7z"
       id="path1"
       style="fill:#f6dda6;fill-opacity:1" />
    <path
       d="M7870 9261 l0 -60 53 -15 c28 -8 114 -31 189 -51 249 -65 306 -91 381 -175 51 -57 89 -142 120 -274 21 -90 21 -102 24 -1533 l4 -1443 139 0 140 0 0 1448 c0 1236 2 1462 15 1547 42 276 91 328 404 431 l186 62 3 61 3 61 -831 0 -830 0 0 -59z"
       id="path2"
       style="fill:#f6dda6;fill-opacity:1" />
    <path
       d="M10712 9259 l3 -61 165 -61 c91 -34 189 -77 217 -95 103 -66 156 -144 189 -277 24 -95 33 -560 33 -1867 l1 -1188 869 0 868 0 7 1578 c3 867 9 1625 12 1685 l7 108 1021 -4 c1127 -3 1039 2 1177 -67 82 -42 198 -157 271 -270 31 -47 210 -370 399 -717 l343 -633 58 0 c54 0 58 2 58 23 0 12 -18 443 -40 957 -22 514 -40 938 -40 943 0 4 -1265 7 -2810 7 l-2811 0 3 -61z"
       id="path3"
       style="fill:#f6dda6;fill-opacity:1" />
    <path
       d="M15146 6568 c-7 -13 -76 -135 -151 -273 -149 -269 -187 -330 -262 -418 -59 -69 -114 -111 -190 -142 l-58 -24 393 -1 392 0 0 440 0 440 -55 0 c-46 0 -57 -4 -69 -22z"
       id="path4"
       style="fill:#f6dda6;fill-opacity:1" />
    <path
       d="M7207 4890 l-28 -50 28 0 c21 0 42 13 78 50 l49 50 -49 0 c-50 0 -50 -1 -78 -50z"
       id="path5"
       style="fill:#f6dda6;fill-opacity:1" />
    <path
       d="M950 4490 l0 -310 35 0 35 0 2 257 3 257 188 -257 188 -257 40 0 39 0 0 311 0 310 -32 -3 -33 -3 -5 -255 -5 -255 -189 258 -188 257 -39 0 -39 0 0 -310z"
       id="path6"
       style="fill:#f6dda6;fill-opacity:1" />
    <path
       d="M2406 4780 c-58 -23 -129 -88 -159 -145 -15 -29 -22 -64 -25 -132 -4 -81 -2 -97 20 -145 34 -75 79 -122 146 -155 76 -37 190 -39 267 -5 65 30 128 92 157 156 26 60 31 186 10 249 -21 59 -83 129 -143 162 -72 39 -197 46 -273 15z m221 -66 c52 -19 115 -87 131 -142 26 -85 9 -179 -42 -247 -79 -104 -267 -113 -358 -17 -44 46 -55 67 -69 131 -29 136 57 269 189 290 55 9 91 5 149 -15z"
       id="path7"
       style="fill:#f6dda6;fill-opacity:1" />
    <path
       d="M3517 4793 c-4 -3 -7 -19 -7 -35 l0 -28 110 0 110 0 0 -275 0 -275 35 0 35 0 0 275 0 275 105 0 105 0 0 35 0 35 -243 0 c-134 0 -247 -3 -250 -7z"
       id="path8"
       style="fill:#f6dda6;fill-opacity:1" />
    <path
       d="M4913 4788 c-6 -7 -52 -112 -103 -233 -51 -121 -108 -255 -126 -297 l-33 -78 38 0 39 0 38 90 38 90 152 0 152 0 38 -90 37 -90 38 0 c36 0 38 2 30 23 -5 12 -64 151 -131 310 l-122 287 -38 0 c-21 0 -42 -6 -47 -12z m107 -218 c33 -79 59 -145 56 -147 -2 -2 -57 -2 -123 -1 l-121 3 61 147 c34 81 62 146 64 145 1 -2 30 -68 63 -147z"
       id="path9"
       style="fill:#f6dda6;fill-opacity:1" />
    <path
       d="M5960 4491 l0 -311 35 0 35 0 0 120 0 121 107 -3 108 -3 74 -117 c73 -118 74 -118 112 -118 22 0 39 2 39 5 0 3 -35 58 -77 122 -43 64 -73 118 -68 120 33 11 91 52 108 74 22 30 33 101 23 154 -9 44 -59 103 -106 123 -26 12 -82 17 -212 20 l-178 4 0 -311z m354 225 c66 -27 95 -103 65 -169 -22 -49 -62 -62 -211 -65 l-138 -4 0 126 0 126 125 0 c84 0 137 -5 159 -14z"
       id="path10"
       style="fill:#f6dda6;fill-opacity:1" />
    <path
       d="M7210 4490 l0 -310 30 0 30 0 0 310 0 310 -30 0 -30 0 0 -310z"
       id="path11"
       style="fill:#f6dda6;fill-opacity:1" />
    <path
       d="M8226 4768 c-8 -18 -66 -156 -130 -306 -64 -150 -116 -275 -116 -277 0 -3 17 -5 38 -5 l37 0 36 88 35 87 155 3 154 2 36 -87 c35 -87 36 -88 72 -91 20 -2 37 1 37 5 0 5 -57 143 -128 308 l-127 300 -43 3 c-40 3 -43 1 -56 -30z m121 -203 l61 -145 -125 0 c-115 0 -125 1 -119 18 25 69 112 272 117 272 3 0 33 -65 66 -145z"
       id="path12"
       style="fill:#f6dda6;fill-opacity:1" />
    <path
       d="M10110 4490 l0 -310 35 0 35 0 0 135 0 135 165 0 165 0 0 30 0 30 -165 0 -165 0 0 110 0 110 185 0 185 0 0 35 0 35 -220 0 -220 0 0 -310z"
       id="path13"
       style="fill:#f6dda6;fill-opacity:1" />
    <path
       d="M11267 4793 c-11 -10 -8 -355 3 -414 27 -142 166 -231 313 -200 79 17 134 61 172 136 l30 60 0 210 0 210 -32 3 -31 3 -4 -213 c-3 -201 -4 -215 -26 -253 -38 -66 -83 -90 -167 -90 -84 0 -129 24 -167 90 -22 38 -23 52 -26 253 l-3 212 -28 0 c-15 0 -31 -3 -34 -7z"
       id="path14"
       style="fill:#f6dda6;fill-opacity:1" />
    <path
       d="M12497 4793 c-4 -3 -7 -19 -7 -35 l0 -28 110 0 110 0 0 -275 0 -275 35 0 35 0 0 275 0 275 105 0 105 0 0 35 0 35 -243 0 c-134 0 -247 -3 -250 -7z"
       id="path15"
       style="fill:#f6dda6;fill-opacity:1" />
    <path
       d="M13700 4491 l0 -311 35 0 35 0 0 120 0 121 107 -3 108 -3 74 -117 c73 -118 74 -118 112 -118 22 0 39 2 39 5 0 3 -35 58 -77 122 -43 64 -73 118 -68 120 33 11 91 52 108 74 22 30 33 101 23 154 -9 44 -59 103 -106 123 -26 12 -82 17 -212 20 l-178 4 0 -311z m354 225 c66 -27 95 -103 65 -169 -22 -49 -62 -62 -211 -65 l-138 -4 0 126 0 126 125 0 c84 0 137 -5 159 -14z"
       id="path16"
       style="fill:#f6dda6;fill-opacity:1" />
    <path
       d="M15100 4783 c-66 -24 -152 -114 -175 -182 -24 -73 -17 -199 14 -259 30 -58 87 -113 146 -142 71 -33 188 -34 263 -1 73 33 147 115 168 188 44 152 -22 317 -153 383 -62 32 -194 38 -263 13z m242 -81 c79 -42 118 -116 118 -222 -1 -127 -84 -222 -210 -237 -105 -12 -211 43 -251 131 -30 65 -26 169 9 237 59 118 208 159 334 91z"
       id="path17"
       style="fill:#f6dda6;fill-opacity:1" />
    <path
       d="M16270 4490 l0 -310 30 0 30 0 0 255 c0 140 3 255 8 255 4 -1 90 -115 192 -255 l185 -255 43 0 42 0 -2 308 -3 307 -32 3 -33 3 0 -255 c0 -141 -3 -256 -7 -256 -5 1 -82 102 -173 227 -216 296 -205 283 -246 283 l-34 0 0 -310z"
       id="path18"
       style="fill:#f6dda6;fill-opacity:1" />
    <path
       d="M17744 4790 c-95 -30 -184 -128 -204 -227 -23 -110 5 -216 79 -296 59 -64 126 -91 226 -91 101 0 161 25 227 95 140 149 96 407 -85 501 -47 24 -188 35 -243 18z m195 -72 c49 -15 107 -72 128 -126 24 -61 23 -165 -1 -212 -50 -97 -140 -147 -247 -137 -139 12 -229 124 -216 267 15 172 160 261 336 208z"
       id="path19"
       style="fill:#f6dda6;fill-opacity:1" />
    <path
       d="M3550 2967 c0 -285 -4 -528 -11 -577 -29 -233 -123 -390 -281 -467 -35 -17 -159 -59 -276 -94 l-212 -63 0 -58 0 -58 885 0 886 0 -3 57 -3 58 -210 70 c-291 97 -358 140 -420 269 -68 143 -68 139 -72 779 l-4 577 -140 0 -139 0 0 -493z"
       id="path20"
       style="fill:#f6dda6;fill-opacity:1" />
    <path
       d="M6932 3451 c2 -5 302 -421 668 -925 l665 -915 325 2 325 2 3 923 2 922 -996 0 c-603 0 -994 -4 -992 -9z"
       id="path21"
       style="fill:#f6dda6;fill-opacity:1" />
    <path
       d="M11319 3148 c-1 -510 -14 -872 -34 -948 -54 -203 -161 -295 -457 -395 l-118 -40 0 -57 0 -58 1580 0 1581 0 -3 57 -3 58 -185 56 c-102 31 -205 65 -230 75 -138 55 -249 153 -306 269 -64 130 -64 134 -71 743 l-6 552 -873 0 -874 0 -1 -312z"
       id="path22"
       style="fill:#f6dda6;fill-opacity:1" />
  </g>
</svg>
